<?xml version="1.0" encoding="utf-8"?>
<!-- Generator: Adobe Illustrator 21.1.0, SVG Export Plug-In . SVG Version: 6.00 Build 0)  -->
<svg version="1.1" id="Layer_1" xmlns="http://www.w3.org/2000/svg" xmlns:xlink="http://www.w3.org/1999/xlink" x="0px" y="0px"
	 viewBox="0 0 232 363" style="enable-background:new 0 0 232 363;" xml:space="preserve">
<style type="text/css">
	.st0{fill:#F7931E;stroke:#000000;stroke-miterlimit:10;}
	.st1{fill:#FFFFFF;}
	.st2{fill:#F7931E;}
	.st3{fill:#FFFFFF;stroke:#000000;stroke-width:3;stroke-miterlimit:10;}
	.st4{fill:none;}
	.st5{fill:#FFFFFF;stroke:#000000;stroke-miterlimit:10;}
</style>
<rect x="0.5" y="0.5" class="st0" width="232" height="362"/>
<g>
	<path class="st1" d="M4.6,122.6c0,0,24-7,28-10s5-12,5-12s-3-46-6-53c0,0,45-4,40,7c0,0,15-15,38-14c0,0,24,4,33,14c0,0,44-20,55-7
		v35l22-3l-7,3c0,0-16,3-15,14s1,3,1,3s16,1,7,26s-10,28-10,28s11,24,31,8c-2.4,4-7.6,13.7-19,11c-17-4-22-9-22-9s28,23,21,31l-8,31
		l-5,42c0,0,2,48,7,51s-46,12-55-4c0,0-20.1,4.4-69.9,6.8c-12.1,0.6-25,0.2-38.1-1.8c0,0-5-43,8-50c0,0-24.1-40.6-22-47
		c4-12,13-26,13-26s11-17-1-60C35.6,136.6,33.6,123.6,4.6,122.6z"/>
	<path d="M4.5,122.6c0-0.1,0.2-0.2,0.2-0.2h0.1H5l0.3-0.1l0.6-0.2l1.3-0.4l2.6-0.8l5.1-1.7c3.4-1.1,6.8-2.3,10.1-3.6
		c1.7-0.6,3.3-1.3,4.9-2c0.8-0.4,1.6-0.8,2.3-1.2c0.7-0.5,1.2-1.1,1.7-1.8c0.9-1.4,1.6-3.1,2.1-4.8c0.5-1.7,0.8-3.4,1-5.2v0.1
		c-0.7-8.9-1.5-17.7-2.3-26.6c-0.4-4.4-0.9-8.8-1.5-13.2c-0.3-2.2-0.6-4.4-1-6.6c-0.2-1.1-0.4-2.2-0.6-3.2c-0.2-1-0.5-2.1-0.9-3
		l-0.5-1.2l1.3-0.1c3.7-0.3,7.4-0.5,11.1-0.7C46.3,46,50,45.9,53.7,46c3.7,0.1,7.5,0.4,11.2,1.1c1.9,0.4,3.7,0.9,5.6,1.9
		c0.9,0.5,1.8,1.3,2.4,2.5c0.3,0.6,0.3,1.3,0.3,1.9c0,0.6-0.3,1.2-0.5,1.7l-1.9-1.3c2.7-2.5,5.5-4.5,8.5-6.4c3-1.8,6.2-3.4,9.5-4.6
		S95.5,40.6,99,40s7.1-0.8,10.6-0.7h0.1h0.1c3.1,0.5,6,1.2,9,2s5.9,1.7,8.8,2.8c2.9,1.1,5.7,2.3,8.5,3.8c2.7,1.5,5.4,3.3,7.6,5.7
		l-1.6-0.3c4.5-2,9-3.7,13.6-5.3s9.3-3,14-4.1c4.8-1.1,9.6-1.9,14.6-2c2.5,0,5,0.2,7.5,0.8c2.5,0.7,5,1.9,6.8,4l0.3,0.4v0.5l-0.2,35
		l-1.2-1l22-2.9l6.7-0.9l-6.2,2.6l-7,3h-0.1h-0.1c-2.4,0.5-4.9,1.3-7.1,2.5c-2.2,1.1-4.3,2.6-5.7,4.6c-0.7,1-1.2,2.1-1.4,3.3
		c-0.1,0.3-0.1,0.6-0.1,0.9l-0.1,0.9v0.9l0.1,1c0.1,1.3,0.2,2.6,0.4,3.8l0.1,0.5l0.1,0.3c0,0,0,0-0.1-0.2c0,0-0.1-0.1-0.2-0.1
		c-0.1,0-0.2,0-0.4,0c-0.1,0-0.1,0-0.2,0.1l-0.1,0.1l-0.1,0.1c-0.1,0.2-0.1,0.1-0.1,0.1s0-0.1,0-0.2v-0.4c0-0.6,0.1-1.3,0.1-1.9V99
		l0.7,0.1c1.4,0.2,2.7,0.6,3.9,1.2s2.3,1.4,3.2,2.4c1.8,2,2.7,4.7,3.1,7.3c0.3,2.6,0.1,5.2-0.4,7.8c-0.5,2.5-1.2,5-2,7.4l-10.3,28.7
		v-0.3c1.4,2.8,3.2,5.4,5.4,7.6c2.2,2.2,4.8,4.1,7.7,5s6.1,0.8,9.1-0.2c2.9-1,5.6-2.6,8.1-4.6l2.1-1.7l-1.4,2.4
		c-2,3.4-4.3,7-7.7,9.3c-1.7,1.2-3.7,2-5.7,2.3c-2.1,0.3-4.2,0.2-6.2-0.3c-3.9-0.9-7.8-2-11.5-3.4c-1.9-0.7-3.7-1.5-5.6-2.4
		c-1.8-0.9-3.6-1.9-5.2-3.3l0.9-1c2.6,2.1,5,4.3,7.5,6.6c2.4,2.3,4.7,4.7,7,7.2c2.2,2.5,4.3,5.1,6,8.1c0.8,1.5,1.6,3.1,2,4.8
		c0.2,0.9,0.3,1.8,0.1,2.8s-0.6,1.9-1.2,2.7l0.2-0.4l-7.9,31V226l-4.8,42v-0.2c0.5,9.2,1.1,18.5,2.1,27.7c0.5,4.6,1,9.2,1.8,13.7
		c0.4,2.2,0.9,4.5,1.6,6.5c0.2,0.5,0.4,1,0.6,1.4c0.1,0.2,0.2,0.4,0.3,0.5l0.1,0.1l0,0l0.2,0.1c0.1,0.1,0.3,0.2,0.4,0.4
		c0.2,0.2,0.3,0.5,0.4,0.8c0.1,0.4,0,0.7-0.1,1c-0.2,0.5-0.5,0.7-0.7,0.9c-0.4,0.3-0.7,0.5-1,0.7c-0.6,0.3-1.2,0.5-1.8,0.7
		c-2.3,0.8-4.6,1.3-7,1.7c-2.3,0.4-4.7,0.7-7,1c-4.7,0.5-9.4,0.7-14.1,0.6c-4.7-0.1-9.5-0.6-14.1-1.9c-2.3-0.6-4.6-1.5-6.8-2.7
		c-2.2-1.3-4.2-3-5.5-5.3l1.7,0.8c-9,1.8-18,2.8-27,3.7c-9,0.9-18.1,1.6-27.1,2.2c-4.5,0.3-9,0.5-13.6,0.8
		c-4.5,0.3-9.1,0.4-13.6,0.4c-9.1-0.1-18.2-0.7-27.2-2.1l-1.2-0.2l-0.1-1.1c-0.5-4.4-0.7-8.8-0.9-13.2c-0.1-4.4-0.1-8.8,0.2-13.3
		c0.3-4.4,0.9-8.9,2-13.2c0.6-2.2,1.4-4.3,2.5-6.4c1.1-2,2.7-4,5-5.3l-0.5,1.9c-6-10.3-11.8-20.7-16.9-31.5
		c-1.3-2.7-2.5-5.4-3.5-8.3c-0.5-1.4-1-2.9-1.4-4.4c-0.2-0.8-0.3-1.6-0.3-2.5c0-0.4,0.1-1,0.2-1.5l0.4-1.1c2.1-5.7,4.8-11,7.7-16.3
		c1.5-2.6,3-5.2,4.6-7.7l0.6-1c0.2-0.3,0.3-0.6,0.5-0.9c0.3-0.6,0.6-1.3,0.9-2c0.5-1.3,1-2.7,1.3-4.1c1.5-5.6,2-11.6,2-17.4
		c-0.1-11.8-2.2-23.5-5.3-35l0,0v-0.1c-0.3-1.3-1-2.7-1.9-3.8c-0.9-1.2-2-2.2-3.1-3.1c-2.3-1.8-5.1-3.1-7.9-4.1s-5.7-1.6-8.7-2.1
		c-1.5-0.2-3-0.4-4.5-0.6c-0.8-0.1-1.5-0.1-2.3-0.2C6,122.8,5.2,122.7,4.5,122.6z M4.7,122.6c0.8,0,1.5-0.1,2.1,0
		c0.7,0,1.5,0.1,2.2,0.1c1.5,0.1,3,0.3,4.5,0.5c3,0.4,6,1,8.8,2c2.9,0.9,5.7,2.2,8.1,4c1.2,0.9,2.4,2,3.3,3.2c1,1.2,1.8,2.5,2.2,4.2
		v-0.1c3.3,11.4,5.7,23.2,5.9,35.2c0.1,6-0.3,12-1.8,17.9c-0.4,1.5-0.8,2.9-1.3,4.4c-0.3,0.7-0.6,1.4-0.9,2.1
		c-0.2,0.4-0.3,0.7-0.6,1.1l-0.6,0.9c-1.5,2.5-3,5.1-4.4,7.7c-2.8,5.2-5.4,10.5-7.3,16l-0.4,1c-0.1,0.2-0.1,0.4-0.1,0.7
		c0,0.6,0.1,1.3,0.3,1.9c0.3,1.4,0.8,2.7,1.3,4.1c1,2.7,2.3,5.4,3.5,8.1c5.1,10.6,11,21,17,31.2l0.7,1.2l-1.2,0.7
		c-1.6,0.9-2.9,2.4-3.8,4.2c-1,1.8-1.7,3.8-2.2,5.8c-1.1,4.1-1.6,8.4-1.8,12.7c-0.3,4.3-0.3,8.6-0.1,13c0.1,4.3,0.4,8.7,0.9,13
		l-1.3-1.3c8.9,1.3,17.8,2,26.8,2c4.5,0,9-0.1,13.5-0.4c4.5-0.2,9-0.5,13.5-0.8c9-0.6,18-1.3,27-2.2c4.5-0.5,9-1,13.4-1.6
		c4.4-0.6,8.9-1.2,13.3-2.1l1.1-0.2l0.5,1c1,1.7,2.5,3.1,4.4,4.2c1.8,1.1,3.9,1.9,6.1,2.5c4.3,1.2,8.9,1.6,13.4,1.8
		c4.6,0.1,9.1-0.1,13.7-0.5c2.3-0.2,4.5-0.5,6.8-0.9c2.2-0.4,4.5-0.9,6.6-1.5c0.5-0.2,1-0.4,1.4-0.6c0.2-0.1,0.4-0.2,0.4-0.3
		c0,0,0,0-0.1,0.2c0,0.1-0.1,0.3,0,0.6c0,0.2,0.1,0.4,0.2,0.4c0.4,0.4-0.4-0.2-0.6-0.5c-0.3-0.3-0.5-0.7-0.7-1
		c-0.3-0.6-0.6-1.2-0.8-1.8c-0.8-2.4-1.3-4.7-1.7-7c-0.8-4.6-1.3-9.3-1.8-13.9c-0.9-9.3-1.5-18.5-1.8-27.9v-0.1v-0.1l5.2-42v-0.1
		v-0.1l8.1-31l0.1-0.2l0.1-0.2c0.9-1,1.1-2.4,0.8-3.9s-1-2.9-1.7-4.3c-1.6-2.8-3.6-5.4-5.7-7.9c-2.1-2.5-4.4-4.8-6.8-7.1
		c-2.4-2.3-4.8-4.5-7.3-6.6l0.9-1c1.3,1.2,3.1,2.2,4.8,3.1c1.7,0.9,3.6,1.7,5.4,2.4c3.7,1.4,7.5,2.5,11.4,3.5
		c1.9,0.5,3.8,0.6,5.7,0.3s3.7-1,5.3-2.1c3.2-2.2,5.5-5.5,7.4-8.9l0.8,0.7c-2.5,2-5.3,3.7-8.4,4.7c-3.1,1-6.5,1.2-9.7,0.2
		c-3.1-1-5.9-2.9-8.1-5.2c-2.3-2.3-4.1-5-5.6-7.9l-0.1-0.2l0.1-0.2l10.2-28.8c0.8-2.4,1.5-4.8,2-7.3c0.4-2.5,0.6-5,0.3-7.4
		s-1.2-4.8-2.8-6.6c-1.6-1.8-3.9-2.9-6.2-3.1l0.7-0.7c0,0.7,0,1.3,0,2c0,0.2,0,0.3,0,0.5c0,0.1,0,0.2-0.1,0.3c0,0.1,0,0.1-0.1,0.3
		c0,0.1-0.1,0.1-0.1,0.1s0,0-0.1,0.1c-0.1,0-0.1,0.1-0.2,0.1c-0.1,0-0.3,0-0.4,0c-0.1,0-0.3-0.1-0.3-0.1c-0.2-0.2-0.2-0.2-0.2-0.3
		c-0.1-0.3-0.1-0.4-0.2-0.6l-0.1-0.5c-0.2-1.3-0.3-2.6-0.5-3.9l-0.1-1l-0.1-1v-1c0.1-0.3,0.1-0.7,0.2-1c0.3-1.4,0.9-2.7,1.6-3.8
		c1.6-2.3,3.9-3.9,6.2-5.2c2.4-1.2,4.9-2.1,7.5-2.7l-0.2,0.1l7-3l0.5,1.7l-22,3.1l-1.2,0.2v-1.2l-0.2-35l0.3,0.8
		c-1.4-1.6-3.4-2.6-5.5-3.2c-2.2-0.6-4.5-0.7-6.8-0.7c-4.7,0.1-9.4,0.9-14,2s-9.2,2.5-13.7,4.1s-9,3.3-13.4,5.3l-0.9,0.4l-0.7-0.7
		c-1.9-2.1-4.3-3.8-6.9-5.2c-2.6-1.4-5.3-2.6-8.1-3.7c-2.8-1.1-5.6-2-8.5-2.7c-2.9-0.8-5.8-1.5-8.7-2h0.2c-3.4-0.1-6.8,0-10.1,0.6
		c-3.3,0.5-6.6,1.4-9.8,2.6c-3.2,1.2-6.2,2.7-9.1,4.4s-5.7,3.8-8.1,6L68,59.6l2.3-5.2c0.3-0.7,0.4-1.3,0.2-1.8
		c-0.2-0.5-0.7-1-1.4-1.4c-1.4-0.8-3.1-1.3-4.8-1.7c-3.5-0.7-7.2-1-10.8-1.2c-3.7-0.2-7.3-0.2-11-0.1c-3.7,0.1-7.3,0.3-11,0.5
		l0.8-1.3c0.5,1.2,0.7,2.3,0.9,3.4c0.2,1.1,0.4,2.2,0.6,3.3c0.3,2.2,0.6,4.4,0.9,6.7c0.5,4.4,1,8.9,1.3,13.3
		c0.8,8.9,1.4,17.8,1.9,26.7v0.1l0,0c-0.3,1.8-0.6,3.6-1.2,5.4c-0.5,1.7-1.2,3.5-2.3,5c-0.5,0.8-1.2,1.5-2,2
		c-0.8,0.5-1.6,0.9-2.5,1.3c-1.7,0.7-3.3,1.4-5,2c-3.4,1.2-6.8,2.3-10.2,3.4l-5.2,1.5l-2.6,0.8l-1.3,0.4L5,122.9L4.7,123H4.5H4.4
		C4.7,122.8,4.8,122.6,4.7,122.6z"/>
</g>
<g>
	<path class="st2" d="M41.5,273.5c0,0,25,37,29,48c0,0-31-1-31-3S35.5,277.5,41.5,273.5z"/>
	<path d="M41.5,273.4c0.5,0.5,0.8,1,1.1,1.4l1,1.4l2.1,2.8c1.4,1.9,2.7,3.8,4,5.7c2.7,3.9,5.2,7.8,7.7,11.7c2.5,4,4.8,8.1,7,12.2
		c1.1,2.1,2.2,4.1,3.2,6.2c1.1,2.1,2.1,4.2,3,6.4l0.2,0.4h-0.5c-6.4-0.2-12.9-0.2-19.3-0.5c-3.2-0.2-6.4-0.4-9.7-0.9
		c-0.4-0.1-0.8-0.2-1.3-0.3c-0.2-0.1-0.4-0.1-0.7-0.2c-0.1,0-0.3-0.1-0.4-0.2c-0.1-0.1-0.2-0.1-0.3-0.3c-0.1-0.2-0.2-0.3-0.3-0.6
		l-0.2-2.5c-0.1-1.6-0.3-3.2-0.4-4.8c-0.5-6.4-0.7-12.9-0.6-19.3c0.1-3.2,0.3-6.5,0.7-9.7c0.2-1.6,0.5-3.2,1-4.8l0.4-1.2
		c0.2-0.4,0.3-0.8,0.5-1.1c0.2-0.4,0.4-0.7,0.7-1.1c0.1-0.2,0.2-0.3,0.4-0.5C41.1,273.6,41.3,273.5,41.5,273.4z M41.5,273.6
		c-0.5,0.5-0.9,1.2-1.2,1.9c-0.1,0.4-0.2,0.7-0.4,1.1l-0.3,1.2c-0.3,1.6-0.4,3.1-0.5,4.7c-0.2,3.2-0.2,6.4-0.1,9.6
		c0.1,6.4,0.6,12.8,1,19.2l0.3,4.8l0.1,1.2v0.6v0.3v0.2v0.1l0,0v-0.1c-0.1-0.2-0.1-0.3-0.2-0.3c0,0,0,0-0.1-0.1c0,0,0,0,0.1,0.1
		s0.3,0.1,0.4,0.2c0.3,0.1,0.7,0.2,1.1,0.3c1.5,0.3,3.1,0.5,4.7,0.7c1.6,0.2,3.2,0.4,4.8,0.5c6.4,0.6,12.8,1.2,19.2,1.5l-0.3,0.4
		c-1.7-4.3-4.1-8.4-6.6-12.3c-2.5-4-5.1-7.8-7.6-11.8l-7.4-11.9l-3.7-6l-1.8-3l-0.9-1.5C42,274.6,41.7,274,41.5,273.6z"/>
</g>
<g>
	<path class="st1" d="M72.5,308.5"/>
</g>
<g>
	<path d="M-0.5,318.4l16.1,4.6l-0.8,0.4c2.1-8.1,4.3-16.1,6.5-24.2l0.4-1.4l1.3,0.7l8.7,4.8c1.4,0.8,2.9,1.6,4.3,2.4
		c1.4,0.8,2.9,1.6,4.3,2.5l-2.2,0.7c0.9-2,1.9-4,2.8-5.9c1-2,2-3.9,3-5.9s2-3.9,3.1-5.8s2.1-3.9,3.3-5.7l0.3,0.1
		c-0.7,2.1-1.4,4.2-2.2,6.3c-0.8,2.1-1.5,4.1-2.3,6.2c-0.8,2-1.6,4.1-2.5,6.1c-0.8,2-1.7,4-2.6,6.1l-0.7,1.6l-1.5-0.9
		c-1.4-0.8-2.8-1.7-4.3-2.5c-1.4-0.8-2.8-1.7-4.2-2.6l-8.4-5.2l1.7-0.7c-2.5,7.9-5,15.9-7.5,23.8l-0.2,0.6l-0.6-0.2l-15.9-5.4
		L-0.5,318.4z"/>
</g>
<path class="st3" d="M22,279.5"/>
<g>
	<path d="M209.2,167c0.4-5,1-9.9,1.6-14.8l1-7.4l1.1-7.3l1.2-7.3l1.3-7.3c0.9-4.9,1.9-9.7,2.9-14.6l1.9,0.9c-1,1-1.9,2-2.9,3
		s-1.9,2-2.9,3c-2,2-4,3.9-6,5.8c1.6-2.3,3.3-4.5,5-6.7c0.8-1.1,1.7-2.2,2.6-3.3c0.9-1.1,1.7-2.2,2.6-3.2l2.4-2.9l-0.5,3.8
		c-0.7,4.9-1.4,9.8-2.2,14.7l-1.3,7.3l-1.3,7.3l-1.4,7.3l-1.6,7.3C211.7,157.4,210.5,162.2,209.2,167z"/>
</g>
<g>
	<line class="st4" x1="27.5" y1="224.5" x2="8.5" y2="255.5"/>
	<path d="M27.6,224.6c-1.4,2.7-2.8,5.4-4.2,8.1l-4.4,8c-1.5,2.7-2.7,5.4-4.5,7.9s-3.6,4.9-5.9,7l-0.3-0.2c0.9-3,2.2-5.8,3.6-8.5
		s3.3-5.1,5-7.6l5.1-7.5c1.8-2.5,3.5-5,5.3-7.4L27.6,224.6z"/>
</g>
<path class="st5" d="M165.5,48.4c0,0-12-18.9-25-22.9s28,9.9,32,20.9"/>
<g>
	<path d="M194.9,245.7c2.6,1.4,5.6,1.8,8.4,2.2c2.9,0.3,5.8,0.4,8.8,0.4c2.9,0,5.9-0.2,8.8-0.4c1.5-0.1,2.9-0.3,4.4-0.5
		c0.4-0.1,0.7-0.1,1.1-0.2c0.2,0,0.3-0.1,0.5-0.1c0.1,0,0.4-0.1,0.4-0.1s-0.1,0.1-0.1,0.2s0.1,0.2,0.1,0.2l0,0l0,0
		c0,0-0.1,0-0.2-0.1c-0.2,0-0.3-0.1-0.5-0.1c-0.4,0-0.7-0.1-1.1-0.1c-1.4,0-3-0.1-4.4-0.5s-2.9-0.9-4.2-1.6c-2.6-1.4-5-3.3-7-5.4
		c-4.2-4.2-7.6-9.1-10.3-14.4l-0.1-0.2l0.1-0.2c2.3-3.7,4.7-7.5,7-11.2c2.4-3.7,4.7-7.4,7.2-11.1v0.4c-8-19.9-8.7-22.1-3.7-9.1
		c-1.2-3-2.4-6.1-3.6-9.1h0.1c1.4,3,2.8,5.9,4.1,8.9c1.4,3,2.7,6,4,9l0.1,0.2l-0.1,0.2c-2.3,3.8-4.7,7.5-7,11.2
		c-2.4,3.7-4.8,7.4-7.2,11.1v-0.4c1.2,2.6,2.7,5.2,4.3,7.6c1.6,2.4,3.4,4.8,5.4,6.9s4.3,4,6.9,5.3c1.3,0.7,2.7,1.2,4.1,1.5
		c1.4,0.3,2.8,0.3,4.3,0.3c0.4,0,0.7,0,1.1,0c0.2,0,0.4,0,0.6,0.1c0.1,0,0.2,0,0.3,0.1h0.1l0.1,0.1c0,0,0.1,0.2,0.1,0.3
		c0,0.1-0.1,0.2-0.1,0.3c-0.3,0.3-0.4,0.2-0.7,0.3c-0.2,0.1-0.4,0.1-0.6,0.2c-0.4,0.1-0.7,0.2-1.1,0.2c-1.5,0.3-2.9,0.4-4.4,0.6
		c-2.9,0.3-5.9,0.4-8.9,0.3c-3,0-5.9-0.2-8.8-0.6c-1.5-0.2-2.9-0.5-4.3-0.9C197.5,247.2,196.1,246.6,194.9,245.7L194.9,245.7z"/>
</g>
<path class="st5" d="M198.8,318c0,0-5.3,22.5-36.3,32.5c0,0,25.6-20,22.8-29"/>
<g>
	<path d="M32.4,52.6c-1-1.1-1.9-2.2-2.7-3.4s-1.6-2.4-2.3-3.6c-0.7-1.2-1.4-2.5-2-3.8c-0.6-1.3-1-2.7-1.5-4l1,0.2
		c-0.8,0.5-1.6,1-2.4,1.6s-1.5,1.2-2.2,1.8c-1.4,1.3-2.7,2.7-4.1,4L14.6,47l-0.3-2.5c-0.2-1.9-0.3-3.8-0.4-5.7
		c-0.1-1.9-0.1-3.8,0-5.7c0.1-1.9,0.2-3.8,0.4-5.7c0.2-1.9,0.5-3.8,1-5.7h0.3c0.5,1.9,0.7,3.8,1,5.7c0.2,1.9,0.4,3.8,0.4,5.7
		c0.1,1.9,0.1,3.8,0,5.7c-0.1,1.9-0.2,3.8-0.4,5.7l-1.9-0.9c1.6-1,3.3-1.9,4.9-3c0.8-0.5,1.5-1.1,2.3-1.7c0.7-0.6,1.4-1.3,2.1-1.9
		l0.5-0.5l0.5,0.7c0.8,1.2,1.7,2.3,2.5,3.5s1.4,2.5,2,3.7c0.6,1.3,1.2,2.6,1.7,3.9c0.5,1.3,1,2.7,1.3,4.1L32.4,52.6z"/>
</g>
</svg>
