<?xml version="1.0" encoding="utf-8"?>
<!-- Generator: Adobe Illustrator 21.1.0, SVG Export Plug-In . SVG Version: 6.00 Build 0)  -->
<svg version="1.1" xmlns="http://www.w3.org/2000/svg" xmlns:xlink="http://www.w3.org/1999/xlink" x="0px" y="0px"
	 viewBox="0 0 232 363" style="enable-background:new 0 0 232 363;" xml:space="preserve">
<style type="text/css">
	.st0{fill:#F7931E;stroke:#000000;stroke-miterlimit:10;}
	.st1{fill:#444444;stroke:#FFFFFF;stroke-width:3;stroke-miterlimit:10;}
	.st2{fill:#FFFFFF;}
</style>
<g id="Layer_1">
	<g id="Layer_1_2_">
		<g id="Layer_1_1_">
			<rect x="-0.1" y="1" class="st0" width="232" height="362"/>
		</g>
	</g>
	<path class="st1" d="M189.5,169.1c-9.9-0.5-8.3,9.5-8.3,9.5s6,60.3-56.3,62.9C65,244,58.4,183.3,58.4,183.3s-0.5-10.1-11.2-11.2
		c-10.7-1.1-12.1,9.6-12.1,9.6s10.2,81.8,89.9,80c74.9-1.7,74.5-78.6,74.5-78.6S199.4,169.6,189.5,169.1z"/>
	<path class="st1" d="M54.9,324.3h124.4c1.3,0,1.8-1.7,0.7-2.4c-7.8-4.5-27.1-14.1-54.2-16.3c-4-0.3-8.1-0.5-12.4-0.4
		c0,0-17.4-1.7-58.9,16.7C53.1,322.3,53.5,324.3,54.9,324.3z"/>
	<path class="st1" d="M126.2,277.3l-0.4,28.2h-20.1l0.2-28.4c0-4.4,3.6-7.9,8-7.9h4.4C122.6,269.2,126.2,272.8,126.2,277.3z"/>
	<g>
		<path class="st1" d="M138.7,231L138.7,231c-26.4,9.2-55.6-4.9-64.7-31.4l-31.5-90.6c-9.2-26.4,4.9-55.6,31.4-64.7l0,0
			c26.4-9.2,55.6,4.9,64.7,31.4l31.5,90.6C179.3,192.7,165.2,221.8,138.7,231z"/>
		<path class="st2" d="M141.3,89.5l-25.9,8.3c0,0-11.9,4.2-7.8,13.6c4.1,9.4,14.9,6.9,14.9,6.9l27.5-8.5L141.3,89.5z"/>
		<path class="st2" d="M152.8,123.2l-20.9,6.7c0,0-9.6,3.4-6.3,11c3.3,7.6,12,5.6,12,5.6l22.2-6.9L152.8,123.2z"/>
		<path class="st2" d="M163.5,151.1l-17.2,5.5c0,0-7.9,2.8-5.1,9c2.5,5.6,7.4,5.1,9.8,4.6l18.2-5.7L163.5,151.1z"/>
	</g>
</g>
<g id="Layer_2">
</g>
</svg>
