<?xml version="1.0" encoding="utf-8"?>
<!-- Generator: Adobe Illustrator 21.1.0, SVG Export Plug-In . SVG Version: 6.00 Build 0)  -->
<svg version="1.1" id="Layer_1" xmlns="http://www.w3.org/2000/svg" xmlns:xlink="http://www.w3.org/1999/xlink" x="0px" y="0px"
	 viewBox="0 0 991.2 208.7" style="enable-background:new 0 0 991.2 208.7;" xml:space="preserve">
<style type="text/css">
	.st0{fill:#F79420;stroke:#000000;stroke-miterlimit:10;}
	.st1{stroke:#000000;stroke-miterlimit:10;}
</style>
<g>
	<g>
		
			<ellipse transform="matrix(2.003870e-02 -0.9998 0.9998 2.003870e-02 -3.0502 231.5091)" class="st0" cx="116.6" cy="117.3" rx="38.6" ry="38.6"/>
		<path class="st1" d="M116.6,156.3c-0.3,0-0.5,0-0.8,0c-21.5-0.4-38.7-18.3-38.2-39.8C78,95,95.8,77.9,117.4,78.3
			c10.4,0.2,20.1,4.5,27.4,12s11.1,17.4,10.9,27.8l0,0C155.2,139.3,137.7,156.3,116.6,156.3z M116.6,79.1
			c-20.7,0-37.8,16.7-38.2,37.5c-0.4,21.1,16.4,38.6,37.5,39c0.3,0,0.5,0,0.8,0c20.7,0,37.8-16.7,38.2-37.5
			c0.2-10.2-3.6-19.9-10.7-27.3c-7.1-7.4-16.6-11.5-26.8-11.7C117.1,79.1,116.8,79.1,116.6,79.1z"/>
	</g>
	<g>
		
			<ellipse transform="matrix(2.003870e-02 -0.9998 0.9998 2.003870e-02 -2.9499 231.2586)" class="st1" cx="116.5" cy="117.1" rx="23.1" ry="23.1"/>
		<path class="st1" d="M116.5,140.7c-0.2,0-0.3,0-0.5,0c-13-0.3-23.4-11-23.1-24c0.1-6.3,2.7-12.2,7.2-16.5
			c4.5-4.4,10.5-6.7,16.8-6.6c6.3,0.1,12.2,2.7,16.5,7.2s6.7,10.5,6.6,16.8C139.8,130.4,129.3,140.7,116.5,140.7z M116.5,94.6
			c-5.9,0-11.4,2.2-15.6,6.3c-4.3,4.2-6.8,9.8-6.9,15.8c-0.2,12.4,9.7,22.8,22.1,23c12.4,0.2,22.8-9.7,23-22.1
			c0.1-6-2.1-11.7-6.3-16.1c-4.2-4.3-9.8-6.8-15.8-6.9C116.8,94.6,116.6,94.6,116.5,94.6z"/>
	</g>
	<g>
		<polyline class="st0" points="131.2,153 37.8,205 11.3,160.9 31.7,150.1 43.8,173.7 91,145.9 		"/>
		<polygon class="st1" points="37.6,205.5 10.7,160.8 31.8,149.6 43.9,173.1 90.8,145.6 91.2,146.3 43.6,174.2 31.5,150.7 
			11.8,161.1 37.9,204.4 131,152.7 131.4,153.4 		"/>
	</g>
	<g>
		<polyline class="st0" points="80.1,104.6 104.1,0.5 154.5,10.3 148.9,32.7 123.3,25.9 112.3,79.5 		"/>
		<polygon class="st1" points="80.5,104.7 79.7,104.5 103.8,0 155,10 149.2,33.1 123.6,26.3 112.7,79.6 111.9,79.4 123,25.4 
			148.6,32.2 154,10.6 104.4,0.9 		"/>
	</g>
	<g>
		<polyline class="st0" points="147.6,94.5 222.2,171.1 186.7,208.2 170.9,191.3 190.5,173.5 151.3,135.2 		"/>
		<polygon class="st1" points="186.7,208.7 170.4,191.3 189.9,173.4 151.1,135.5 151.6,134.9 191.1,173.5 171.5,191.3 186.7,207.6 
			221.7,171.1 147.4,94.8 147.9,94.2 222.8,171.1 222.5,171.3 		"/>
	</g>
</g>
<g>
	<path class="st0" d="M262.4,74.4h-14.7V63.5h43v10.9h-14.6v80.1h-13.8V74.4z"/>
	<path class="st0" d="M299.2,57.6h13.5v17.3L312,87.4c1-1.4,2.1-2.5,3.2-3.4c1.2-0.9,2.3-1.6,3.6-2.2c1.2-0.6,2.5-0.9,3.7-1.2
		c1.3-0.2,2.5-0.3,3.8-0.3c4.3,0,7.6,1.5,9.9,4.5c2.3,3,3.5,7.5,3.5,13.5v56.2h-13.5V98.8c0-3.2-0.5-5.5-1.5-6.7
		c-1-1.3-2.5-1.9-4.4-1.9c-1.4,0-2.7,0.5-4.1,1.4c-1.4,0.9-2.6,2.2-3.6,3.8v59.2h-13.5V57.6z"/>
	<path class="st0" d="M371.4,155.3c-3.2,0-6-0.6-8.4-1.8s-4.5-3-6.2-5.5c-1.7-2.5-2.9-5.7-3.8-9.6c-0.9-3.9-1.3-8.6-1.3-14v-13.9
		c0-4.7,0.3-8.6,1-12c0.7-3.3,1.6-6.1,2.7-8.4c1.1-2.3,2.4-4,3.9-5.4c1.5-1.3,3-2.3,4.6-3c1.6-0.7,3.1-1.1,4.7-1.3
		c1.5-0.2,3-0.3,4.3-0.3c2.4,0,4.7,0.4,7,1.1c2.2,0.7,4.2,2,5.9,3.7c1.7,1.8,3.1,4.1,4.1,7.1c1,2.9,1.5,6.6,1.5,11
		c0,1.5,0,3-0.1,4.5c-0.1,1.5-0.2,3-0.3,4.5c-0.1,1.5-0.3,2.9-0.6,4.3c-0.2,1.4-0.5,2.7-0.7,3.8h-24.3v7.5c0,3.2,0.1,5.9,0.4,8.1
		s0.7,3.9,1.3,5.3s1.4,2.3,2.4,2.9c1,0.6,2.3,0.9,3.8,0.9c0.8,0,1.6-0.2,2.4-0.5c0.8-0.3,1.5-0.9,2.1-1.7c0.6-0.8,1.1-1.8,1.4-3.1
		s0.5-2.9,0.5-4.8v-2.3h11.2v2.8c0,7-1.7,12-5,15.2C382.5,153.7,377.7,155.3,371.4,155.3z M378.8,111.3c0-0.4,0.1-0.9,0.1-1.6
		c0-0.7,0.1-1.3,0.1-2.1c0-0.7,0-1.4,0-2.1s0-1.3,0-1.8c0-4.8-0.6-8.3-1.7-10.4c-1.1-2.1-2.8-3.2-5.1-3.2c-1.2,0-2.2,0.3-3.1,0.8
		c-0.9,0.6-1.6,1.5-2.2,2.8c-0.6,1.3-1,3-1.3,5.1c-0.3,2.1-0.4,4.8-0.4,7.9v4.5H378.8z"/>
	<path class="st0" d="M445.4,155.4c-1.1,0-2.3-0.1-3.7-0.3c-1.4-0.2-2.9-0.7-4.4-1.5c-1.5-0.7-3-1.8-4.4-3.2s-2.8-3.2-3.9-5.4
		c-1.2-2.3-2.1-5-2.8-8.3c-0.7-3.3-1.1-7.2-1.1-11.7V92.7c0-4.6,0.4-8.5,1.1-11.7c0.7-3.2,1.7-6,3-8.2c1.2-2.2,2.7-4,4.3-5.3
		c1.6-1.3,3.3-2.3,5-3c1.7-0.7,3.5-1.1,5.2-1.4s3.3-0.3,4.7-0.3c3.7,0,6.8,0.5,9.4,1.5s4.6,2.4,6.2,4.2s2.7,3.8,3.4,6.2
		c0.7,2.3,1,4.8,1,7.5c0,2-0.1,3.8-0.3,5.4c-0.2,1.7-0.5,3.5-0.9,5.5h-11v-4.3c0-10-2.7-15-8-15c-1.5,0-2.7,0.2-3.8,0.7
		c-1.1,0.5-2,1.3-2.7,2.5c-0.7,1.2-1.2,2.8-1.6,4.7c-0.3,2-0.5,4.4-0.5,7.3v41.2c0,2.8,0.2,5.2,0.5,7.1c0.3,1.9,0.9,3.4,1.5,4.5
		s1.6,1.9,2.6,2.4c1,0.5,2.3,0.7,3.8,0.7c1.5,0,2.8-0.4,3.9-1.2c1.1-0.8,2-1.9,2.7-3.3c0.7-1.4,1.2-3,1.6-4.9
		c0.3-1.9,0.5-3.9,0.5-6.1v-11.9h-7.1v-9.1H470v46.1h-9.2l-1.5-8.6c-1.7,3.4-3.7,5.8-6,7.3S448.5,155.4,445.4,155.4z"/>
	<path class="st0" d="M489.1,70.7c-2.5,0-4.4-0.7-5.9-2.2c-1.4-1.5-2.2-3.7-2.2-6.6c0-1.6,0.2-2.9,0.6-4c0.4-1.1,0.9-2,1.6-2.6
		c0.7-0.7,1.5-1.1,2.5-1.4c1-0.3,2.1-0.5,3.4-0.5c2.7,0,4.7,0.7,6.1,2c1.4,1.4,2.1,3.5,2.1,6.5c0,2.8-0.7,4.9-2.1,6.5
		C493.8,69.9,491.8,70.7,489.1,70.7z M482.1,81.2h13.5v73.4h-13.5V81.2z"/>
	<path class="st0" d="M511.2,90.7h-5.7v-9.6h6.9l2.7-19h9.6v19h11.7v9.6h-11.7v46.7c0,1.6,0.2,2.9,0.5,3.9s0.7,1.7,1.3,2.3
		c0.5,0.6,1.2,0.9,1.9,1.1c0.7,0.2,1.5,0.3,2.2,0.3c1.3,0,2.5-0.2,3.5-0.5s2-0.8,2.9-1.3v7.5c-0.8,1-1.6,1.7-2.5,2.3
		c-0.9,0.6-1.8,1.1-2.8,1.5c-1,0.4-1.9,0.6-2.9,0.8c-1,0.1-2,0.2-2.9,0.2c-1.9,0-3.7-0.2-5.4-0.7c-1.7-0.5-3.3-1.4-4.6-2.9
		s-2.4-3.3-3.2-5.8c-0.8-2.5-1.2-5.7-1.2-9.7V90.7z"/>
	<path class="st0" d="M588.2,155.4c-1.1,0-2.3-0.1-3.7-0.3c-1.4-0.2-2.9-0.7-4.4-1.5c-1.5-0.7-3-1.8-4.4-3.2
		c-1.5-1.4-2.8-3.2-3.9-5.4c-1.2-2.3-2.1-5-2.8-8.3c-0.7-3.3-1.1-7.2-1.1-11.7V92.7c0-4.6,0.4-8.5,1.1-11.7c0.7-3.2,1.7-6,3-8.2
		c1.2-2.2,2.7-4,4.3-5.3c1.6-1.3,3.3-2.3,5-3c1.7-0.7,3.5-1.1,5.2-1.4s3.3-0.3,4.7-0.3c3.7,0,6.8,0.5,9.4,1.5c2.5,1,4.6,2.4,6.2,4.2
		s2.7,3.8,3.4,6.2s1,4.8,1,7.5c0,2-0.1,3.8-0.3,5.4s-0.5,3.5-0.9,5.5h-11v-4.3c0-10-2.7-15-8-15c-1.5,0-2.7,0.2-3.8,0.7
		c-1.1,0.5-2,1.3-2.7,2.5c-0.7,1.2-1.2,2.8-1.6,4.7c-0.3,2-0.5,4.4-0.5,7.3v41.2c0,2.8,0.2,5.2,0.5,7.1c0.3,1.9,0.9,3.4,1.5,4.5
		s1.6,1.9,2.6,2.4c1,0.5,2.3,0.7,3.8,0.7c1.5,0,2.8-0.4,3.9-1.2c1.1-0.8,2-1.9,2.7-3.3c0.7-1.4,1.2-3,1.6-4.9
		c0.3-1.9,0.5-3.9,0.5-6.1v-11.9h-7.1v-9.1h20.5v46.1h-9.2l-1.5-8.6c-1.7,3.4-3.7,5.8-6,7.3S591.3,155.4,588.2,155.4z"/>
	<path class="st0" d="M624.9,81.2h13.5v55.1c0,3.2,0.5,5.5,1.5,6.7c1,1.3,2.5,1.9,4.4,1.9c1.4,0,2.7-0.4,3.9-1.1s2.4-1.8,3.5-3.2
		V81.2h13.5v73.4h-10.3l-1.3-7.8h-0.1c-1.1,1.7-2.2,3.1-3.4,4.2c-1.2,1.1-2.4,2-3.7,2.7s-2.6,1.1-4,1.4c-1.4,0.3-2.7,0.4-4,0.4
		c-4.3,0-7.6-1.5-9.9-4.5c-2.3-3-3.5-7.5-3.5-13.5V81.2z"/>
	<path class="st0" d="M693.2,155.4c-0.8,0-1.8-0.1-2.9-0.2c-1.1-0.2-2.2-0.5-3.4-1.1c-1.2-0.6-2.3-1.4-3.5-2.6
		c-1.1-1.1-2.1-2.7-3-4.7c-0.9-2-1.6-4.4-2.2-7.3c-0.6-2.9-0.8-6.4-0.8-10.6v-23.3c0-4.1,0.3-7.6,0.9-10.4c0.6-2.8,1.4-5.2,2.3-7.1
		c1-1.9,2-3.3,3.2-4.4c1.2-1,2.4-1.8,3.6-2.3c1.2-0.5,2.3-0.8,3.4-0.9c1.1-0.1,2-0.2,2.7-0.2c1.3,0,2.6,0.2,3.7,0.5
		c1.2,0.4,2.2,0.8,3.2,1.4s1.8,1.2,2.6,2c0.7,0.7,1.4,1.5,1.9,2.2l0.1-0.1l-0.4-9.3V57.6h13.4v96.9h-10.5l-1.2-6.8
		c-0.6,1-1.3,1.9-2.1,2.8c-0.8,0.9-1.7,1.7-2.8,2.5c-1.1,0.7-2.3,1.3-3.6,1.7S694.9,155.4,693.2,155.4z M697.8,144.9
		c0.9,0,1.7-0.2,2.4-0.5c0.7-0.3,1.3-0.7,1.9-1.2c0.6-0.5,1-1,1.4-1.7c0.4-0.6,0.8-1.3,1-2V95.5c-0.7-1.5-1.6-2.8-2.7-3.8
		c-1.1-1-2.5-1.6-4.1-1.6c-1,0-1.9,0.2-2.7,0.5c-0.8,0.4-1.5,1-2.1,2c-0.6,1-1.1,2.3-1.4,4c-0.3,1.7-0.5,4-0.5,6.7v28.1
		c0,2.7,0.2,5,0.5,6.7c0.3,1.7,0.8,3.1,1.4,4.1s1.3,1.7,2.2,2C695.9,144.7,696.8,144.9,697.8,144.9z"/>
	<path class="st0" d="M774.4,155.4c-1.1,0-2.3-0.1-3.7-0.3c-1.4-0.2-2.9-0.7-4.4-1.5c-1.5-0.7-3-1.8-4.4-3.2
		c-1.5-1.4-2.8-3.2-3.9-5.4c-1.2-2.3-2.1-5-2.8-8.3c-0.7-3.3-1.1-7.2-1.1-11.7V92.7c0-4.6,0.4-8.5,1.1-11.7c0.7-3.2,1.7-6,3-8.2
		c1.2-2.2,2.7-4,4.3-5.3c1.6-1.3,3.3-2.3,5-3c1.7-0.7,3.5-1.1,5.2-1.4s3.3-0.3,4.7-0.3c3.7,0,6.8,0.5,9.4,1.5c2.5,1,4.6,2.4,6.2,4.2
		s2.7,3.8,3.4,6.2s1,4.8,1,7.5c0,2-0.1,3.8-0.3,5.4c-0.2,1.7-0.5,3.5-0.9,5.5h-11v-4.3c0-10-2.7-15-8-15c-1.5,0-2.7,0.2-3.8,0.7
		c-1.1,0.5-2,1.3-2.7,2.5c-0.7,1.2-1.2,2.8-1.6,4.7c-0.3,2-0.5,4.4-0.5,7.3v41.2c0,2.8,0.2,5.2,0.5,7.1c0.3,1.9,0.9,3.4,1.5,4.5
		s1.6,1.9,2.6,2.4c1,0.5,2.3,0.7,3.8,0.7c1.5,0,2.8-0.4,3.9-1.2c1.1-0.8,2-1.9,2.7-3.3c0.7-1.4,1.2-3,1.6-4.9
		c0.3-1.9,0.5-3.9,0.5-6.1v-11.9h-7.1v-9.1H799v46.1h-9.2l-1.5-8.6c-1.7,3.4-3.7,5.8-6,7.3C780.1,154.6,777.5,155.4,774.4,155.4z"/>
	<path class="st0" d="M811,81.2h13.5v55.1c0,3.2,0.5,5.5,1.5,6.7c1,1.3,2.5,1.9,4.4,1.9c1.4,0,2.7-0.4,3.9-1.1s2.4-1.8,3.5-3.2V81.2
		h13.5v73.4H841l-1.3-7.8h-0.1c-1.1,1.7-2.2,3.1-3.4,4.2c-1.2,1.1-2.4,2-3.7,2.7c-1.3,0.7-2.6,1.1-4,1.4c-1.4,0.3-2.7,0.4-4,0.4
		c-4.3,0-7.6-1.5-9.9-4.5c-2.3-3-3.5-7.5-3.5-13.5V81.2z"/>
	<path class="st0" d="M872.5,70.7c-2.5,0-4.4-0.7-5.9-2.2c-1.4-1.5-2.2-3.7-2.2-6.6c0-1.6,0.2-2.9,0.6-4c0.4-1.1,0.9-2,1.6-2.6
		c0.7-0.7,1.5-1.1,2.5-1.4c1-0.3,2.1-0.5,3.4-0.5c2.7,0,4.7,0.7,6.1,2c1.4,1.4,2.1,3.5,2.1,6.5c0,2.8-0.7,4.9-2.1,6.5
		C877.2,69.9,875.2,70.7,872.5,70.7z M865.5,81.2H879v73.4h-13.5V81.2z"/>
	<path class="st0" d="M907.1,155.4c-0.8,0-1.8-0.1-2.9-0.2c-1.1-0.2-2.2-0.5-3.4-1.1c-1.2-0.6-2.3-1.4-3.5-2.6
		c-1.1-1.1-2.1-2.7-3-4.7c-0.9-2-1.6-4.4-2.2-7.3s-0.8-6.4-0.8-10.6v-23.3c0-4.1,0.3-7.6,0.9-10.4c0.6-2.8,1.4-5.2,2.3-7.1
		c1-1.9,2-3.3,3.2-4.4c1.2-1,2.4-1.8,3.6-2.3c1.2-0.5,2.3-0.8,3.4-0.9c1.1-0.1,2-0.2,2.7-0.2c1.3,0,2.6,0.2,3.7,0.5
		c1.2,0.4,2.2,0.8,3.2,1.4s1.8,1.2,2.6,2c0.7,0.7,1.4,1.5,1.9,2.2l0.1-0.1l-0.4-9.3V57.6h13.4v96.9h-10.5l-1.2-6.8
		c-0.6,1-1.3,1.9-2.1,2.8c-0.8,0.9-1.7,1.7-2.8,2.5c-1.1,0.7-2.3,1.3-3.6,1.7S908.8,155.4,907.1,155.4z M911.7,144.9
		c0.9,0,1.7-0.2,2.4-0.5c0.7-0.3,1.3-0.7,1.9-1.2c0.6-0.5,1-1,1.4-1.7c0.4-0.6,0.8-1.3,1-2V95.5c-0.7-1.5-1.6-2.8-2.7-3.8
		c-1.1-1-2.5-1.6-4.1-1.6c-1,0-1.9,0.2-2.7,0.5c-0.8,0.4-1.5,1-2.1,2c-0.6,1-1.1,2.3-1.4,4c-0.3,1.7-0.5,4-0.5,6.7v28.1
		c0,2.7,0.2,5,0.5,6.7c0.3,1.7,0.8,3.1,1.4,4.1s1.3,1.7,2.2,2C909.8,144.7,910.7,144.9,911.7,144.9z"/>
	<path class="st0" d="M963.4,155.3c-3.2,0-6-0.6-8.4-1.8c-2.4-1.2-4.5-3-6.2-5.5s-2.9-5.7-3.8-9.6c-0.9-3.9-1.3-8.6-1.3-14v-13.9
		c0-4.7,0.3-8.6,1-12c0.7-3.3,1.6-6.1,2.7-8.4c1.1-2.3,2.4-4,3.9-5.4c1.5-1.3,3-2.3,4.6-3c1.6-0.7,3.1-1.1,4.7-1.3
		c1.5-0.2,3-0.3,4.3-0.3c2.4,0,4.7,0.4,7,1.1c2.2,0.7,4.2,2,5.9,3.7c1.7,1.8,3.1,4.1,4.1,7.1c1,2.9,1.5,6.6,1.5,11
		c0,1.5,0,3-0.1,4.5c-0.1,1.5-0.2,3-0.3,4.5c-0.1,1.5-0.3,2.9-0.6,4.3c-0.2,1.4-0.5,2.7-0.7,3.8h-24.3v7.5c0,3.2,0.1,5.9,0.4,8.1
		c0.2,2.2,0.7,3.9,1.3,5.3s1.4,2.3,2.4,2.9c1,0.6,2.3,0.9,3.8,0.9c0.8,0,1.6-0.2,2.4-0.5c0.8-0.3,1.5-0.9,2.1-1.7
		c0.6-0.8,1.1-1.8,1.4-3.1s0.5-2.9,0.5-4.8v-2.3h11.2v2.8c0,7-1.7,12-5,15.2C974.5,153.7,969.7,155.3,963.4,155.3z M970.9,111.3
		c0-0.4,0.1-0.9,0.1-1.6c0-0.7,0.1-1.3,0.1-2.1c0-0.7,0-1.4,0-2.1s0-1.3,0-1.8c0-4.8-0.6-8.3-1.7-10.4c-1.1-2.1-2.8-3.2-5.1-3.2
		c-1.2,0-2.2,0.3-3.1,0.8c-0.9,0.6-1.6,1.5-2.2,2.8c-0.6,1.3-1,3-1.3,5.1c-0.3,2.1-0.4,4.8-0.4,7.9v4.5H970.9z"/>
</g>
</svg>
