<?xml version="1.0" encoding="utf-8"?>
<!-- Generator: Adobe Illustrator 21.1.0, SVG Export Plug-In . SVG Version: 6.00 Build 0)  -->
<svg version="1.1" id="Layer_1" xmlns="http://www.w3.org/2000/svg" xmlns:xlink="http://www.w3.org/1999/xlink" x="0px" y="0px"
	 viewBox="0 0 232 363" style="enable-background:new 0 0 232 363;" xml:space="preserve">
<style type="text/css">
	.st0{fill:#F7931E;stroke:#000000;stroke-miterlimit:10;}
	.st1{fill:#FFFFFF;}
	.st2{fill:#FFFFFF;stroke:#000000;stroke-width:3;stroke-miterlimit:10;}
	.st3{fill:#EDE4E4;stroke:#000000;stroke-miterlimit:10;}
	.st4{fill:none;stroke:#5B5B5B;stroke-width:4;stroke-miterlimit:10;}
	.st5{stroke:#5B5B5B;stroke-width:2;stroke-miterlimit:10;}
	.st6{fill:none;stroke:#5B5B5B;stroke-width:6;stroke-miterlimit:10;}
</style>
<g id="Layer_1_1_">
	<path class="st0" d="M231.3,363V1.3c0-0.3,0-0.6,0.1-0.8H0.4C0.6,1,0.7,1.5,0.7,2v361H231.3z"/>
	<g>
		<path class="st1" d="M72,308.9"/>
	</g>
	<path class="st2" d="M21.5,279.9"/>
</g>
<g>
	<polygon class="st3" points="114.9,179.3 73.5,179.3 32.2,179.3 32.2,198.4 61.8,198.4 58.3,220.7 48.6,272.5 65.5,272.5 75.3,226 
		85,272.5 102.2,272.5 85,198.4 114.9,198.4 	"/>
	<path class="st3" d="M92,161c0-10.2-8.2-18.5-18.5-18.5S55,150.8,55,161s8.2,18.5,18.5,18.5c2.6,0,4.9-0.5,7.1-1.5
		C87.2,175.1,92,168.5,92,161z"/>
</g>
<g>
	<polygon class="st3" points="198.8,179.3 157.5,179.3 116.1,179.3 116.1,198.4 145.8,198.4 142.3,220.7 132.4,272.5 149.4,272.5 
		159.1,226 169,272.5 186.2,272.5 169,198.4 198.8,198.4 	"/>
	<path class="st3" d="M175.8,161c0-10.2-8.2-18.5-18.5-18.5s-18.5,8.2-18.5,18.5s8.2,18.5,18.5,18.5c2.6,0,4.9-0.5,7.1-1.5
		C171.2,175.1,175.8,168.5,175.8,161z"/>
</g>
<g>
	<polygon class="st3" points="281.7,179.3 240.2,179.3 198.8,179.3 198.8,198.4 228.5,198.4 225,220.7 215.3,272.5 232.1,272.5 
		242,226 251.7,272.5 268.9,272.5 251.7,198.4 281.7,198.4 	"/>
	<path class="st3" d="M258.7,161c0-10.2-8.2-18.5-18.5-18.5s-18.5,8.2-18.5,18.5s8.2,18.5,18.5,18.5c2.6,0,4.9-0.5,7.1-1.5
		C254.1,175.1,258.7,168.5,258.7,161z"/>
</g>
<g>
	<polygon class="st3" points="326,179.3 281.7,179.3 281.7,198.4 311.2,198.4 307.7,220.7 298,272.5 315,272.5 324.7,226 326,232.2 
			"/>
	<path class="st3" d="M326,142.9c-0.9-0.2-2-0.4-3.1-0.4c-10.2,0-18.5,8.2-18.5,18.5s8.2,18.5,18.5,18.5c1.1,0,2-0.2,3.1-0.4V142.9z
		"/>
</g>
<g>
	<polygon class="st3" points="-51.8,179.3 -95.9,179.3 -95.9,247.6 -91.5,226 -81.6,272.5 -64.4,272.5 -81.6,198.4 -51.8,198.4 	"/>
	<path class="st3" d="M-93.2,142.6c-0.9,0-1.8,0.2-2.9,0.4v36.2c0.9,0.2,1.8,0.4,2.9,0.4c2.6,0,4.9-0.5,7.1-1.5
		c6.6-2.7,11.2-9.3,11.2-17C-74.7,150.8-82.9,142.6-93.2,142.6z"/>
</g>
<g>
	<polygon class="st3" points="32.2,179.3 -9.2,179.3 -50.5,179.3 -50.5,198.4 -21.1,198.4 -24.4,220.7 -34.3,272.5 -17.2,272.5 
		-7.5,226 2.3,272.5 19.5,272.5 2.3,198.4 32.2,198.4 	"/>
	<path class="st3" d="M9.1,161c0-10.2-8.2-18.5-18.5-18.5s-18.3,8.2-18.3,18.5s8.2,18.5,18.5,18.5c2.6,0,4.9-0.5,7.1-1.5
		C4.5,175.1,9.1,168.5,9.1,161z"/>
</g>
<g>
	<line class="st4" x1="-27.7" y1="73" x2="10" y2="110.7"/>
	<line class="st4" x1="10" y1="73" x2="-27.7" y2="110.7"/>
</g>
<g>
	<path class="st5" d="M-93.4,95c5.1,5.1,10.4,10.4,15.6,15.6"/>
	<path class="st5" d="M-77.8,73c-5.1,5.1-10.4,10.4-15.6,15.6"/>
</g>
<g>
	<line class="st4" x1="54.7" y1="73" x2="92.4" y2="110.7"/>
	<line class="st4" x1="92.4" y1="73" x2="54.7" y2="110.7"/>
</g>
<polyline class="st6" points="140.8,95.5 149.4,109.6 186.2,67.5 "/>
<g>
	<line class="st4" x1="223" y1="73" x2="260.7" y2="110.7"/>
	<line class="st4" x1="260.7" y1="73" x2="223" y2="110.7"/>
</g>
<g>
	<path class="st5" d="M307.2,73c6,6,12.1,12.1,18.1,18.1"/>
	<path class="st5" d="M325.3,92.4c-6,6-12.1,12.1-18.1,18.1"/>
</g>
</svg>
