<?xml version="1.0" encoding="utf-8"?>
<!-- Generator: Adobe Illustrator 21.1.0, SVG Export Plug-In . SVG Version: 6.00 Build 0)  -->
<svg version="1.1" xmlns="http://www.w3.org/2000/svg" xmlns:xlink="http://www.w3.org/1999/xlink" x="0px" y="0px"
	 viewBox="0 0 232 363" style="enable-background:new 0 0 232 363;" xml:space="preserve">
<style type="text/css">
	.st0{fill:#F7931E;}
	.st1{fill:#F7931E;stroke:#000000;stroke-miterlimit:10;}
	.st2{fill:#FFFFFF;}
	.st3{fill:#FFFFFF;stroke:#000000;stroke-width:3;stroke-miterlimit:10;}
	.st4{fill:#F7931E;stroke:#000000;stroke-width:5;stroke-miterlimit:10;}
	.st5{opacity:0.79;fill:#F7931E;}
	.st6{fill:none;stroke:#F7931E;stroke-width:3;stroke-miterlimit:10;}
	.st7{fill:#4D4D4D;}
	.st8{font-family:'FjallaOne-Regular';}
	.st9{font-size:11.2099px;}
	.st10{fill:none;stroke:#666666;stroke-width:3;stroke-miterlimit:10;}
</style>
<g id="Layer_1">
	<g>
		<g id="Layer_1_9_">
			<rect x="0.5" y="0.5" class="st0" width="232" height="362"/>
			<g>
				<path class="st0" d="M72.5,308.5"/>
			</g>
			<path class="st0" d="M22,279.5"/>
		</g>
		<circle class="st0" cx="116.9" cy="176.4" r="47.4"/>
		<g id="Layer_2_9_">
			<g>
				<circle class="st0" cx="116" cy="177" r="113.5"/>
			</g>
			<g>
				<circle class="st0" cx="116" cy="177" r="113.5"/>
			</g>
			<g>
				<circle class="st0" cx="116" cy="177" r="113.5"/>
			</g>
		</g>
		<circle class="st0" cx="115.7" cy="177.3" r="111.3"/>
		<circle class="st0" cx="116.5" cy="177.5" r="47.8"/>
		<circle class="st0" cx="116.5" cy="177.5" r="40"/>
		<circle class="st0" cx="116.5" cy="177.5" r="31.9"/>
		<circle class="st0" cx="116.5" cy="177.5" r="12.3"/>
	</g>
	<g>
		<g id="Layer_1_8_">
			<rect x="0.5" y="0.5" class="st1" width="232" height="362"/>
			<g>
				<path class="st2" d="M72.5,308.5"/>
			</g>
			<path class="st3" d="M22,279.5"/>
		</g>
		<circle class="st0" cx="116.9" cy="176.4" r="47.4"/>
		<g id="Layer_2_8_">
			<g>
				<circle class="st0" cx="116" cy="177" r="113.5"/>
			</g>
			<g>
				<circle class="st4" cx="116" cy="177" r="113.5"/>
			</g>
		</g>
		<circle class="st2" cx="115.7" cy="177.3" r="111.3"/>
		<circle class="st5" cx="116.5" cy="177.5" r="47.8"/>
		<circle class="st2" cx="116.5" cy="177.5" r="40"/>
		<circle class="st5" cx="116.5" cy="177.5" r="31.9"/>
		<circle class="st2" cx="116.5" cy="177.5" r="12.3"/>
	</g>
</g>
<g id="Layer_2_1_">
	<line class="st6" x1="116.5" y1="288.8" x2="116.5" y2="183.2"/>
	<text transform="matrix(1 0 0 1 133.126 238.3438)" class="st7 st8 st9">6</text>
	<text transform="matrix(1 0 0 1 132.5039 207.2041)" class="st7 st8 st9">4</text>
	<g>
		<line class="st10" x1="116.5" y1="234.5" x2="116.5" y2="177.5"/>
		<line class="st10" x1="109.9" y1="186.8" x2="117.4" y2="177.5"/>
		<line class="st10" x1="122.8" y1="187" x2="115.7" y2="177.3"/>
		<line class="st10" x1="108.1" y1="264.3" x2="124.9" y2="264.3"/>
		<line class="st10" x1="113.7" y1="249.4" x2="119.3" y2="249.4"/>
		<line class="st10" x1="108.1" y1="233.5" x2="124.9" y2="233.5"/>
		<line class="st10" x1="113.7" y1="217.6" x2="119.3" y2="217.6"/>
		<line class="st10" x1="108.1" y1="202.7" x2="124.9" y2="202.7"/>
	</g>
</g>
</svg>
